<mxfile host="app.diagrams.net" modified="2022-07-17T17:16:30.444Z" agent="5.0 (Windows NT 10.0; Win64; x64) AppleWebKit/537.36 (KHTML, like Gecko) Chrome/102.0.5005.115 Safari/537.36 OPR/88.0.4412.74" etag="if6uF5bxdx-JW1icpkuQ" version="20.1.1" type="github">
  <diagram id="4SfTsScHiVleGu0qaq3D" name="Page-1">
    <mxGraphModel dx="806" dy="1633" grid="1" gridSize="10" guides="1" tooltips="1" connect="1" arrows="1" fold="1" page="1" pageScale="1" pageWidth="827" pageHeight="1169" math="0" shadow="0">
      <root>
        <mxCell id="0" />
        <mxCell id="1" parent="0" />
        <mxCell id="9cqko6a10NnHrcCj2KjO-1" value="ClsCandidato" style="swimlane;fontStyle=1;align=center;verticalAlign=top;childLayout=stackLayout;horizontal=1;startSize=26;horizontalStack=0;resizeParent=1;resizeParentMax=0;resizeLast=0;collapsible=1;marginBottom=0;" vertex="1" parent="1">
          <mxGeometry x="40" y="-240" width="200" height="190" as="geometry">
            <mxRectangle x="330" y="200" width="100" height="30" as="alternateBounds" />
          </mxGeometry>
        </mxCell>
        <mxCell id="9cqko6a10NnHrcCj2KjO-2" value="- partidoPolitico: String" style="text;strokeColor=none;fillColor=none;align=left;verticalAlign=top;spacingLeft=4;spacingRight=4;overflow=hidden;rotatable=0;points=[[0,0.5],[1,0.5]];portConstraint=eastwest;" vertex="1" parent="9cqko6a10NnHrcCj2KjO-1">
          <mxGeometry y="26" width="200" height="26" as="geometry" />
        </mxCell>
        <mxCell id="9cqko6a10NnHrcCj2KjO-43" value="- descripcion: String" style="text;strokeColor=none;fillColor=none;align=left;verticalAlign=top;spacingLeft=4;spacingRight=4;overflow=hidden;rotatable=0;points=[[0,0.5],[1,0.5]];portConstraint=eastwest;" vertex="1" parent="9cqko6a10NnHrcCj2KjO-1">
          <mxGeometry y="52" width="200" height="26" as="geometry" />
        </mxCell>
        <mxCell id="9cqko6a10NnHrcCj2KjO-40" value="- ciudadOrigen: String" style="text;strokeColor=none;fillColor=none;align=left;verticalAlign=top;spacingLeft=4;spacingRight=4;overflow=hidden;rotatable=0;points=[[0,0.5],[1,0.5]];portConstraint=eastwest;" vertex="1" parent="9cqko6a10NnHrcCj2KjO-1">
          <mxGeometry y="78" width="200" height="26" as="geometry" />
        </mxCell>
        <mxCell id="9cqko6a10NnHrcCj2KjO-42" value="- mensajeCampania: String" style="text;strokeColor=none;fillColor=none;align=left;verticalAlign=top;spacingLeft=4;spacingRight=4;overflow=hidden;rotatable=0;points=[[0,0.5],[1,0.5]];portConstraint=eastwest;" vertex="1" parent="9cqko6a10NnHrcCj2KjO-1">
          <mxGeometry y="104" width="200" height="26" as="geometry" />
        </mxCell>
        <mxCell id="9cqko6a10NnHrcCj2KjO-41" value="- propuestas: LinkedList&lt;String&gt;" style="text;strokeColor=none;fillColor=none;align=left;verticalAlign=top;spacingLeft=4;spacingRight=4;overflow=hidden;rotatable=0;points=[[0,0.5],[1,0.5]];portConstraint=eastwest;" vertex="1" parent="9cqko6a10NnHrcCj2KjO-1">
          <mxGeometry y="130" width="200" height="26" as="geometry" />
        </mxCell>
        <mxCell id="9cqko6a10NnHrcCj2KjO-3" value="" style="line;strokeWidth=1;fillColor=none;align=left;verticalAlign=middle;spacingTop=-1;spacingLeft=3;spacingRight=3;rotatable=0;labelPosition=right;points=[];portConstraint=eastwest;" vertex="1" parent="9cqko6a10NnHrcCj2KjO-1">
          <mxGeometry y="156" width="200" height="8" as="geometry" />
        </mxCell>
        <mxCell id="9cqko6a10NnHrcCj2KjO-4" value="+ method(type): type" style="text;strokeColor=none;fillColor=none;align=left;verticalAlign=top;spacingLeft=4;spacingRight=4;overflow=hidden;rotatable=0;points=[[0,0.5],[1,0.5]];portConstraint=eastwest;" vertex="1" parent="9cqko6a10NnHrcCj2KjO-1">
          <mxGeometry y="164" width="200" height="26" as="geometry" />
        </mxCell>
        <mxCell id="9cqko6a10NnHrcCj2KjO-5" value="ClsVotante" style="swimlane;fontStyle=1;align=center;verticalAlign=top;childLayout=stackLayout;horizontal=1;startSize=26;horizontalStack=0;resizeParent=1;resizeParentMax=0;resizeLast=0;collapsible=1;marginBottom=0;" vertex="1" parent="1">
          <mxGeometry x="560" y="-260" width="160" height="60" as="geometry">
            <mxRectangle x="330" y="200" width="100" height="30" as="alternateBounds" />
          </mxGeometry>
        </mxCell>
        <mxCell id="9cqko6a10NnHrcCj2KjO-7" value="" style="line;strokeWidth=1;fillColor=none;align=left;verticalAlign=middle;spacingTop=-1;spacingLeft=3;spacingRight=3;rotatable=0;labelPosition=right;points=[];portConstraint=eastwest;" vertex="1" parent="9cqko6a10NnHrcCj2KjO-5">
          <mxGeometry y="26" width="160" height="8" as="geometry" />
        </mxCell>
        <mxCell id="9cqko6a10NnHrcCj2KjO-8" value="+ method(type): type" style="text;strokeColor=none;fillColor=none;align=left;verticalAlign=top;spacingLeft=4;spacingRight=4;overflow=hidden;rotatable=0;points=[[0,0.5],[1,0.5]];portConstraint=eastwest;" vertex="1" parent="9cqko6a10NnHrcCj2KjO-5">
          <mxGeometry y="34" width="160" height="26" as="geometry" />
        </mxCell>
        <mxCell id="9cqko6a10NnHrcCj2KjO-13" value="ClsEleccion" style="swimlane;fontStyle=1;align=center;verticalAlign=top;childLayout=stackLayout;horizontal=1;startSize=26;horizontalStack=0;resizeParent=1;resizeParentMax=0;resizeLast=0;collapsible=1;marginBottom=0;" vertex="1" parent="1">
          <mxGeometry x="290" y="-40" width="270" height="216" as="geometry">
            <mxRectangle x="330" y="200" width="100" height="30" as="alternateBounds" />
          </mxGeometry>
        </mxCell>
        <mxCell id="9cqko6a10NnHrcCj2KjO-14" value="- listaCandidatos : LinkedList&lt;ClsCandidato&gt;" style="text;strokeColor=none;fillColor=none;align=left;verticalAlign=top;spacingLeft=4;spacingRight=4;overflow=hidden;rotatable=0;points=[[0,0.5],[1,0.5]];portConstraint=eastwest;" vertex="1" parent="9cqko6a10NnHrcCj2KjO-13">
          <mxGeometry y="26" width="270" height="26" as="geometry" />
        </mxCell>
        <mxCell id="9cqko6a10NnHrcCj2KjO-45" value="- listaVotantes : LinkedList&lt;ClsVotante&gt;" style="text;strokeColor=none;fillColor=none;align=left;verticalAlign=top;spacingLeft=4;spacingRight=4;overflow=hidden;rotatable=0;points=[[0,0.5],[1,0.5]];portConstraint=eastwest;" vertex="1" parent="9cqko6a10NnHrcCj2KjO-13">
          <mxGeometry y="52" width="270" height="26" as="geometry" />
        </mxCell>
        <mxCell id="9cqko6a10NnHrcCj2KjO-47" value="- fechaInicio : Date" style="text;strokeColor=none;fillColor=none;align=left;verticalAlign=top;spacingLeft=4;spacingRight=4;overflow=hidden;rotatable=0;points=[[0,0.5],[1,0.5]];portConstraint=eastwest;" vertex="1" parent="9cqko6a10NnHrcCj2KjO-13">
          <mxGeometry y="78" width="270" height="26" as="geometry" />
        </mxCell>
        <mxCell id="9cqko6a10NnHrcCj2KjO-49" value="- fechaFin : Date" style="text;strokeColor=none;fillColor=none;align=left;verticalAlign=top;spacingLeft=4;spacingRight=4;overflow=hidden;rotatable=0;points=[[0,0.5],[1,0.5]];portConstraint=eastwest;" vertex="1" parent="9cqko6a10NnHrcCj2KjO-13">
          <mxGeometry y="104" width="270" height="26" as="geometry" />
        </mxCell>
        <mxCell id="9cqko6a10NnHrcCj2KjO-50" value="- estado : Char" style="text;strokeColor=none;fillColor=none;align=left;verticalAlign=top;spacingLeft=4;spacingRight=4;overflow=hidden;rotatable=0;points=[[0,0.5],[1,0.5]];portConstraint=eastwest;" vertex="1" parent="9cqko6a10NnHrcCj2KjO-13">
          <mxGeometry y="130" width="270" height="26" as="geometry" />
        </mxCell>
        <mxCell id="9cqko6a10NnHrcCj2KjO-51" value="- ganador : ClsCandidato" style="text;strokeColor=none;fillColor=none;align=left;verticalAlign=top;spacingLeft=4;spacingRight=4;overflow=hidden;rotatable=0;points=[[0,0.5],[1,0.5]];portConstraint=eastwest;" vertex="1" parent="9cqko6a10NnHrcCj2KjO-13">
          <mxGeometry y="156" width="270" height="26" as="geometry" />
        </mxCell>
        <mxCell id="9cqko6a10NnHrcCj2KjO-15" value="" style="line;strokeWidth=1;fillColor=none;align=left;verticalAlign=middle;spacingTop=-1;spacingLeft=3;spacingRight=3;rotatable=0;labelPosition=right;points=[];portConstraint=eastwest;" vertex="1" parent="9cqko6a10NnHrcCj2KjO-13">
          <mxGeometry y="182" width="270" height="8" as="geometry" />
        </mxCell>
        <mxCell id="9cqko6a10NnHrcCj2KjO-16" value="+ method(type): type" style="text;strokeColor=none;fillColor=none;align=left;verticalAlign=top;spacingLeft=4;spacingRight=4;overflow=hidden;rotatable=0;points=[[0,0.5],[1,0.5]];portConstraint=eastwest;" vertex="1" parent="9cqko6a10NnHrcCj2KjO-13">
          <mxGeometry y="190" width="270" height="26" as="geometry" />
        </mxCell>
        <mxCell id="9cqko6a10NnHrcCj2KjO-17" value="ClsVoto" style="swimlane;fontStyle=1;align=center;verticalAlign=top;childLayout=stackLayout;horizontal=1;startSize=26;horizontalStack=0;resizeParent=1;resizeParentMax=0;resizeLast=0;collapsible=1;marginBottom=0;" vertex="1" parent="1">
          <mxGeometry x="690" y="240" width="160" height="86" as="geometry">
            <mxRectangle x="330" y="200" width="100" height="30" as="alternateBounds" />
          </mxGeometry>
        </mxCell>
        <mxCell id="9cqko6a10NnHrcCj2KjO-18" value="+ : type" style="text;strokeColor=none;fillColor=none;align=left;verticalAlign=top;spacingLeft=4;spacingRight=4;overflow=hidden;rotatable=0;points=[[0,0.5],[1,0.5]];portConstraint=eastwest;" vertex="1" parent="9cqko6a10NnHrcCj2KjO-17">
          <mxGeometry y="26" width="160" height="26" as="geometry" />
        </mxCell>
        <mxCell id="9cqko6a10NnHrcCj2KjO-19" value="" style="line;strokeWidth=1;fillColor=none;align=left;verticalAlign=middle;spacingTop=-1;spacingLeft=3;spacingRight=3;rotatable=0;labelPosition=right;points=[];portConstraint=eastwest;" vertex="1" parent="9cqko6a10NnHrcCj2KjO-17">
          <mxGeometry y="52" width="160" height="8" as="geometry" />
        </mxCell>
        <mxCell id="9cqko6a10NnHrcCj2KjO-20" value="+ method(type): type" style="text;strokeColor=none;fillColor=none;align=left;verticalAlign=top;spacingLeft=4;spacingRight=4;overflow=hidden;rotatable=0;points=[[0,0.5],[1,0.5]];portConstraint=eastwest;" vertex="1" parent="9cqko6a10NnHrcCj2KjO-17">
          <mxGeometry y="60" width="160" height="26" as="geometry" />
        </mxCell>
        <mxCell id="9cqko6a10NnHrcCj2KjO-21" value="ClsMensajes" style="swimlane;fontStyle=1;align=center;verticalAlign=top;childLayout=stackLayout;horizontal=1;startSize=26;horizontalStack=0;resizeParent=1;resizeParentMax=0;resizeLast=0;collapsible=1;marginBottom=0;" vertex="1" parent="1">
          <mxGeometry x="640" y="-86" width="160" height="86" as="geometry">
            <mxRectangle x="330" y="200" width="100" height="30" as="alternateBounds" />
          </mxGeometry>
        </mxCell>
        <mxCell id="9cqko6a10NnHrcCj2KjO-22" value="+ : type" style="text;strokeColor=none;fillColor=none;align=left;verticalAlign=top;spacingLeft=4;spacingRight=4;overflow=hidden;rotatable=0;points=[[0,0.5],[1,0.5]];portConstraint=eastwest;" vertex="1" parent="9cqko6a10NnHrcCj2KjO-21">
          <mxGeometry y="26" width="160" height="26" as="geometry" />
        </mxCell>
        <mxCell id="9cqko6a10NnHrcCj2KjO-23" value="" style="line;strokeWidth=1;fillColor=none;align=left;verticalAlign=middle;spacingTop=-1;spacingLeft=3;spacingRight=3;rotatable=0;labelPosition=right;points=[];portConstraint=eastwest;" vertex="1" parent="9cqko6a10NnHrcCj2KjO-21">
          <mxGeometry y="52" width="160" height="8" as="geometry" />
        </mxCell>
        <mxCell id="9cqko6a10NnHrcCj2KjO-24" value="+ method(type): type" style="text;strokeColor=none;fillColor=none;align=left;verticalAlign=top;spacingLeft=4;spacingRight=4;overflow=hidden;rotatable=0;points=[[0,0.5],[1,0.5]];portConstraint=eastwest;" vertex="1" parent="9cqko6a10NnHrcCj2KjO-21">
          <mxGeometry y="60" width="160" height="26" as="geometry" />
        </mxCell>
        <mxCell id="9cqko6a10NnHrcCj2KjO-31" value="ClsPersona" style="swimlane;fontStyle=1;align=center;verticalAlign=top;childLayout=stackLayout;horizontal=1;startSize=26;horizontalStack=0;resizeParent=1;resizeParentMax=0;resizeLast=0;collapsible=1;marginBottom=0;" vertex="1" parent="1">
          <mxGeometry x="334" y="-440" width="160" height="164" as="geometry">
            <mxRectangle x="330" y="200" width="100" height="30" as="alternateBounds" />
          </mxGeometry>
        </mxCell>
        <mxCell id="9cqko6a10NnHrcCj2KjO-32" value="- numeroDoc : String" style="text;strokeColor=none;fillColor=none;align=left;verticalAlign=top;spacingLeft=4;spacingRight=4;overflow=hidden;rotatable=0;points=[[0,0.5],[1,0.5]];portConstraint=eastwest;" vertex="1" parent="9cqko6a10NnHrcCj2KjO-31">
          <mxGeometry y="26" width="160" height="26" as="geometry" />
        </mxCell>
        <mxCell id="9cqko6a10NnHrcCj2KjO-37" value="- nombre : String" style="text;strokeColor=none;fillColor=none;align=left;verticalAlign=top;spacingLeft=4;spacingRight=4;overflow=hidden;rotatable=0;points=[[0,0.5],[1,0.5]];portConstraint=eastwest;" vertex="1" parent="9cqko6a10NnHrcCj2KjO-31">
          <mxGeometry y="52" width="160" height="26" as="geometry" />
        </mxCell>
        <mxCell id="9cqko6a10NnHrcCj2KjO-36" value="- telefono : String" style="text;strokeColor=none;fillColor=none;align=left;verticalAlign=top;spacingLeft=4;spacingRight=4;overflow=hidden;rotatable=0;points=[[0,0.5],[1,0.5]];portConstraint=eastwest;" vertex="1" parent="9cqko6a10NnHrcCj2KjO-31">
          <mxGeometry y="78" width="160" height="26" as="geometry" />
        </mxCell>
        <mxCell id="9cqko6a10NnHrcCj2KjO-35" value="- correo : String" style="text;strokeColor=none;fillColor=none;align=left;verticalAlign=top;spacingLeft=4;spacingRight=4;overflow=hidden;rotatable=0;points=[[0,0.5],[1,0.5]];portConstraint=eastwest;" vertex="1" parent="9cqko6a10NnHrcCj2KjO-31">
          <mxGeometry y="104" width="160" height="26" as="geometry" />
        </mxCell>
        <mxCell id="9cqko6a10NnHrcCj2KjO-33" value="" style="line;strokeWidth=1;fillColor=none;align=left;verticalAlign=middle;spacingTop=-1;spacingLeft=3;spacingRight=3;rotatable=0;labelPosition=right;points=[];portConstraint=eastwest;" vertex="1" parent="9cqko6a10NnHrcCj2KjO-31">
          <mxGeometry y="130" width="160" height="8" as="geometry" />
        </mxCell>
        <mxCell id="9cqko6a10NnHrcCj2KjO-34" value="+ method(type): type" style="text;strokeColor=none;fillColor=none;align=left;verticalAlign=top;spacingLeft=4;spacingRight=4;overflow=hidden;rotatable=0;points=[[0,0.5],[1,0.5]];portConstraint=eastwest;" vertex="1" parent="9cqko6a10NnHrcCj2KjO-31">
          <mxGeometry y="138" width="160" height="26" as="geometry" />
        </mxCell>
        <mxCell id="9cqko6a10NnHrcCj2KjO-38" value="Extends" style="endArrow=block;endSize=16;endFill=0;html=1;rounded=0;exitX=0.463;exitY=0;exitDx=0;exitDy=0;exitPerimeter=0;entryX=0;entryY=0.5;entryDx=0;entryDy=0;" edge="1" parent="1" source="9cqko6a10NnHrcCj2KjO-1" target="9cqko6a10NnHrcCj2KjO-34">
          <mxGeometry width="160" relative="1" as="geometry">
            <mxPoint x="330" y="240" as="sourcePoint" />
            <mxPoint x="490" y="240" as="targetPoint" />
          </mxGeometry>
        </mxCell>
        <mxCell id="9cqko6a10NnHrcCj2KjO-39" value="Extends" style="endArrow=block;endSize=16;endFill=0;html=1;rounded=0;exitX=0.5;exitY=0;exitDx=0;exitDy=0;entryX=1;entryY=0.5;entryDx=0;entryDy=0;" edge="1" parent="1" source="9cqko6a10NnHrcCj2KjO-5" target="9cqko6a10NnHrcCj2KjO-34">
          <mxGeometry width="160" relative="1" as="geometry">
            <mxPoint x="164.08000000000004" y="230" as="sourcePoint" />
            <mxPoint x="331.2034782608696" y="174" as="targetPoint" />
          </mxGeometry>
        </mxCell>
        <mxCell id="9cqko6a10NnHrcCj2KjO-44" value="" style="endArrow=diamondThin;endFill=0;endSize=24;html=1;rounded=0;entryX=0.013;entryY=0.231;entryDx=0;entryDy=0;entryPerimeter=0;exitX=1;exitY=0.5;exitDx=0;exitDy=0;" edge="1" parent="1" source="9cqko6a10NnHrcCj2KjO-41" target="9cqko6a10NnHrcCj2KjO-14">
          <mxGeometry width="160" relative="1" as="geometry">
            <mxPoint x="280" y="260" as="sourcePoint" />
            <mxPoint x="490" y="240" as="targetPoint" />
          </mxGeometry>
        </mxCell>
        <mxCell id="9cqko6a10NnHrcCj2KjO-46" value="" style="endArrow=diamondThin;endFill=0;endSize=24;html=1;rounded=0;entryX=0.5;entryY=0;entryDx=0;entryDy=0;exitX=0.475;exitY=1.115;exitDx=0;exitDy=0;exitPerimeter=0;" edge="1" parent="1" source="9cqko6a10NnHrcCj2KjO-8" target="9cqko6a10NnHrcCj2KjO-13">
          <mxGeometry width="160" relative="1" as="geometry">
            <mxPoint x="290" y="373" as="sourcePoint" />
            <mxPoint x="363.51" y="392.006" as="targetPoint" />
          </mxGeometry>
        </mxCell>
      </root>
    </mxGraphModel>
  </diagram>
</mxfile>
